<svg width="30" height="32" viewBox="0 0 30 32" fill="none" xmlns="http://www.w3.org/2000/svg">
<g id="Github">
<path id="FillB" d="M0.542542 16.3247C0.542542 7.86095 6.87548 1 14.6853 1C22.4958 1 28.8278 7.86095 28.8278 16.3247C28.8278 23.0933 24.7806 28.8356 19.1643 30.8643C18.9511 31.0784 10.921 31.0082 10.2142 30.8663C4.59486 28.8399 0.542542 23.0956 0.542542 16.3247Z" fill="#1F4768" stroke="#223045"/>
<path id="Fill-4" d="M14.6989 1.83801C7.30021 1.83801 1.30066 8.33686 1.30066 16.3539C1.30066 22.7675 5.13965 28.2086 10.4632 30.1281C11.1328 30.2624 11.3786 29.8132 11.3786 29.4298C11.3786 29.0836 11.3662 27.9401 11.3604 26.7272C7.63302 27.6053 6.84649 25.0145 6.84649 25.0145C6.23702 23.3367 5.35886 22.8905 5.35886 22.8905C4.14324 21.9896 5.45049 22.0081 5.45049 22.0081C6.79591 22.1105 7.50433 23.504 7.50433 23.504C8.69932 25.7231 10.6387 25.0816 11.4032 24.7107C11.5235 23.7725 11.8707 23.1321 12.2539 22.7696C9.27795 22.4026 6.1496 21.1579 6.1496 15.5958C6.1496 14.011 6.67299 12.7161 7.53007 11.6995C7.39096 11.3339 6.93235 9.85749 7.65986 7.85803C7.65986 7.85803 8.78496 7.4679 11.3453 9.34597C12.4141 9.02434 13.5602 8.86305 14.6989 8.85752C15.8375 8.86305 16.9846 9.02434 18.0553 9.34597C20.6126 7.4679 21.7361 7.85803 21.7361 7.85803C22.4654 9.85749 22.0066 11.3339 21.8675 11.6995C22.7265 12.7161 23.2464 14.011 23.2464 15.5958C23.2464 21.1711 20.112 22.3987 17.1286 22.7581C17.6091 23.2085 18.0373 24.0919 18.0373 25.4462C18.0373 27.3885 18.0218 28.9516 18.0218 29.4298C18.0218 29.816 18.263 30.2687 18.9421 30.1261C24.2627 28.2046 28.0969 22.7653 28.0969 16.3539C28.0969 8.33686 22.0982 1.83801 14.6989 1.83801Z" fill="#EFEFEF"/>
<path id="Fill-5" d="M6.41476 22.5799C6.38531 22.6513 6.28078 22.6727 6.18556 22.6237C6.08856 22.5768 6.03408 22.4795 6.06553 22.4078C6.09432 22.3343 6.19907 22.3138 6.29584 22.3631C6.39306 22.41 6.44842 22.5083 6.41476 22.5799Z" fill="#797C81"/>
<path id="Fill-6" d="M6.95573 23.229C6.89195 23.2925 6.76727 23.263 6.68267 23.1626C6.5952 23.0624 6.57881 22.9284 6.64348 22.8639C6.70925 22.8003 6.83016 22.8301 6.91786 22.9303C7.00534 23.0317 7.02239 23.1647 6.95573 23.229Z" fill="#797C81"/>
<path id="Fill-7" d="M7.48409 24.0573C7.40216 24.1185 7.26817 24.0611 7.18535 23.9333C7.10341 23.8055 7.10341 23.6522 7.18712 23.5908C7.27017 23.5294 7.40216 23.5846 7.48609 23.7115C7.5678 23.8414 7.5678 23.9947 7.48409 24.0573Z" fill="#797C81"/>
<path id="Fill-8" d="M8.20651 24.8569C8.13321 24.9438 7.97709 24.9205 7.86281 24.802C7.74589 24.686 7.71333 24.5216 7.78686 24.4347C7.86104 24.3476 8.01806 24.3721 8.13321 24.4897C8.24925 24.6054 8.28469 24.771 8.20651 24.8569Z" fill="#797C81"/>
<path id="Fill-9" d="M9.20299 25.3211C9.17065 25.4337 9.02029 25.4849 8.86881 25.437C8.71756 25.3878 8.61857 25.2559 8.64913 25.1421C8.68057 25.0289 8.83161 24.9755 8.98419 25.0267C9.13522 25.0757 9.23443 25.2066 9.20299 25.3211Z" fill="#797C81"/>
<path id="Fill-10" d="M10.2963 25.4074C10.3001 25.5259 10.1716 25.6242 10.0126 25.6264C9.85275 25.6302 9.72342 25.5343 9.72165 25.4176C9.72165 25.2979 9.84721 25.2006 10.0071 25.1977C10.1661 25.1944 10.2963 25.2896 10.2963 25.4074Z" fill="#797C81"/>
<path id="Fill-11" d="M11.3157 25.221C11.3347 25.3367 11.2242 25.4554 11.0663 25.4871C10.9111 25.5175 10.7674 25.4461 10.7477 25.3314C10.7284 25.2129 10.8409 25.0941 10.9959 25.0634C11.154 25.0339 11.2955 25.1034 11.3157 25.221Z" fill="#797C81"/>
</g>
</svg>
