<svg width="29" height="32" viewBox="0 0 29 32" fill="none" xmlns="http://www.w3.org/2000/svg">
<g id="Gmail">
<path id="Shape" d="M0.790039 15.9708C0.790039 7.70269 6.89738 1 14.4311 1C21.9649 1 28.0722 7.70269 28.0722 15.9708C28.0722 24.239 21.9649 30.9417 14.4311 30.9417C6.89738 30.9417 0.790039 24.239 0.790039 15.9708Z" fill="#EFEFEF" stroke="#223045"/>
<path id="Shape_2" d="M20.3817 21.7285H8.4635C8.00135 21.7285 7.61218 21.3147 7.61218 20.7942V11.3445C7.61218 10.8374 7.98919 10.4103 8.4635 10.4103H20.3817C20.8439 10.4103 21.233 10.824 21.233 11.3445V20.7942C21.233 21.3147 20.856 21.7285 20.3817 21.7285Z" fill="#E3E3E3"/>
<path id="Shape_3" opacity="0.1" d="M9.31544 21.7284L14.4111 17.2305L14.4476 16.9903L9.1938 12.8394L9.18164 21.5282L9.31544 21.7284Z" fill="#231F20"/>
<path id="Shape_4" d="M8.4635 21.7284C7.98919 21.7284 7.61218 21.3146 7.61218 20.7941V11.3311C7.61218 10.8106 7.98919 10.7172 8.4635 10.7172C8.93781 10.7172 9.31482 10.824 9.31482 11.3311V21.7284H8.4635Z" fill="#D54B3D"/>
<path id="Shape_5" fill-rule="evenodd" clip-rule="evenodd" d="M7.61218 11.3311C7.61218 10.824 7.98919 10.7172 8.4635 10.7172C8.93781 10.7172 9.31482 10.8106 9.31482 11.3311V21.7284H8.4635C7.98919 21.7284 7.61218 21.3146 7.61218 20.7941V11.3311ZM9.19082 11.3311C9.19082 11.0508 9.06919 10.8506 8.46114 10.8506C7.85309 10.8506 7.73146 11.0374 7.73146 11.3311V20.7941C7.73146 21.2345 8.05981 21.5949 8.46114 21.5949H9.19082V11.3311Z" fill="#D72B27"/>
<path id="Shape_6" d="M20.3818 21.7284H19.5305V11.3045C19.5305 10.7839 19.9075 10.7172 20.3818 10.7172C20.856 10.7172 21.233 10.7839 21.233 11.3045V20.8074C21.233 21.3146 20.856 21.7284 20.3818 21.7284Z" fill="#D54B3D"/>
<path id="Shape_7" fill-rule="evenodd" clip-rule="evenodd" d="M19.5305 11.3045C19.5305 10.7839 19.9075 10.7172 20.3818 10.7172C20.856 10.7172 21.233 10.7839 21.233 11.3045V20.8074C21.233 21.328 20.856 21.7417 20.3818 21.7417H19.5305V11.3045ZM21.1098 11.3044C21.1098 10.9707 20.9273 10.8506 20.3801 10.8506C19.8328 10.8506 19.6504 10.9573 19.6504 11.3044V21.6082H20.3801C20.7814 21.6082 21.1098 21.2479 21.1098 20.8074V11.3044Z" fill="#D72B27"/>
<path id="Shape_8" d="M16.7338 21.7284L7.68396 11.7192L8.15998 11.9317L14.4596 16.9101L21.2335 11.4587V20.8074C21.2335 21.3146 20.8565 21.7284 20.3822 21.7284H16.7338Z" fill="url(#paint0_linear)"/>
<path id="Shape_9" d="M14.4114 17.2306L7.978 12.1054C7.601 11.7984 7.49159 11.2111 7.77129 10.7973C8.05098 10.3836 8.59828 10.2901 8.98745 10.5971L14.4236 14.9349L19.8962 10.5438C20.2732 10.2368 20.8084 10.3302 21.0881 10.7573C21.3678 11.1711 21.2826 11.7583 20.8934 12.0653L14.4114 17.2306Z" fill="#D54B3D"/>
<path id="Shape_10" fill-rule="evenodd" clip-rule="evenodd" d="M19.8831 10.5305C20.0291 10.4103 20.2114 10.3569 20.3817 10.3569C20.6493 10.3569 20.9046 10.4904 21.0749 10.7573C21.3425 11.1844 21.2574 11.7584 20.8804 12.0654L14.4105 17.244L7.97705 12.1054C7.60004 11.7984 7.49063 11.2111 7.75816 10.7974C7.92839 10.5438 8.19598 10.4103 8.46352 10.4103C8.64597 10.4103 8.82836 10.4637 8.97432 10.5838L14.4105 14.9216L19.8831 10.5305ZM20.9754 10.8242C20.8295 10.6106 20.6105 10.4905 20.3795 10.4905C20.2214 10.4905 20.0755 10.5439 19.9417 10.6373L14.4812 15.0285L14.4082 15.0818L14.3352 15.0285L8.91125 10.7041C8.78962 10.5973 8.63155 10.5439 8.47343 10.5439C8.23022 10.5439 7.99912 10.6774 7.86538 10.8776C7.63428 11.2246 7.71942 11.7318 8.04777 11.9987L14.4082 17.0705L20.8173 11.9453C21.1335 11.6784 21.2065 11.1846 20.9754 10.8242Z" fill="#D72B27"/>
</g>
<defs>
<linearGradient id="paint0_linear" x1="7.68447" y1="21.7296" x2="21.2379" y2="21.7296" gradientUnits="userSpaceOnUse">
<stop stop-opacity="0.1"/>
<stop offset="1" stop-opacity="0.2"/>
</linearGradient>
</defs>
</svg>
