<svg width="29" height="32" viewBox="0 0 29 32" fill="none" xmlns="http://www.w3.org/2000/svg">
<g id="LinkedIN">
<path id="back" d="M1 15.9708C1 7.70267 7.10732 1 14.6411 1C22.1748 1 28.2821 7.70267 28.2821 15.9708C28.2821 24.239 22.1748 30.9417 14.6411 30.9417C7.10732 30.9417 1 24.239 1 15.9708Z" fill="#0077B5" stroke="#223045"/>
<path id="Shape" fill-rule="evenodd" clip-rule="evenodd" d="M10.8446 10.2461C10.8446 11.2249 10.1732 12.0081 9.09534 12.0081H9.07558C8.03774 12.0081 7.36679 11.2249 7.36679 10.2461C7.36679 9.24662 8.05817 8.48535 9.11571 8.48535C10.1732 8.48535 10.8245 9.24662 10.8446 10.2461ZM10.6381 13.3996V23.5933H7.5467V13.3996H10.6381ZM21.7877 23.5932L21.7878 17.7484C21.7878 14.6173 20.2627 13.1601 18.2285 13.1601C16.5872 13.1601 15.8523 14.1495 15.442 14.8436V13.3997H12.3503C12.391 14.3563 12.3503 23.5934 12.3503 23.5934H15.442V17.9004C15.442 17.5958 15.4621 17.2919 15.5438 17.0737C15.7673 16.4651 16.276 15.835 17.13 15.835C18.2491 15.835 18.6964 16.7697 18.6964 18.1395V23.5932H21.7877Z" fill="white"/>
</g>
</svg>
