     <svg width="89" height="62" viewBox="0 0 89 62" fill="none" xmlns="http://www.w3.org/2000/svg">
                <a id="logoMain">
                    <g id="logoH">
                        <path id="Rectangle 32"
                            d="M26.5586 2.1947L69.4246 2.19471L86.018 36.9626C86.018 36.9626 46.3784 37.2773 44 36.9626C41.6216 36.648 26.5586 2.1947 26.5586 2.1947Z"
                            fill="#BEEBFD" />
                        <path id="SH"
                            d="M35.2246 8.40257C35.2109 7.23865 35.495 6.39645 36.0769 5.87597C36.6588 5.3555 37.6097 5.09019 38.9297 5.08006C39.8536 5.07297 40.6004 5.30724 41.1701 5.78288C41.7397 6.25851 42.1563 6.98733 42.4199 7.96933L40.7608 9.24209L39.8789 9.24886L41.8056 7.77604C41.5442 6.97403 41.1715 6.41288 40.6877 6.09259C40.2159 5.7722 39.632 5.61468 38.936 5.62002C38.456 5.62371 38.0484 5.65684 37.7131 5.71941C37.3898 5.78189 37.0613 5.90442 36.7274 6.08698C36.4054 6.25746 36.1627 6.53533 35.9992 6.92059C35.8357 7.30585 35.7575 7.79846 35.7646 8.39842C35.7708 8.92639 36.0163 9.39251 36.5011 9.7968C36.9979 10.201 37.596 10.5444 38.2954 10.827C38.9947 11.1097 39.6942 11.3983 40.3937 11.693C41.1052 11.9875 41.7037 12.3669 42.1892 12.8312C42.6867 13.2954 42.9391 13.8335 42.9463 14.4454C42.9604 15.6453 42.671 16.5416 42.0779 17.1341C41.4969 17.7266 40.4864 18.0284 39.0464 18.0394C37.8704 18.0485 36.9437 17.8216 36.2662 17.3588C35.5886 16.884 35.1179 16.1496 34.8542 15.1556L35.3556 14.9357C35.6071 15.9058 36.023 16.5806 36.6035 16.9602C37.1959 17.3276 38.0081 17.5074 39.0401 17.4995C40.192 17.4906 41.0414 17.2621 41.5881 16.8139C42.1469 16.3656 42.4196 15.5775 42.4063 14.4496C42.4001 13.9216 42.1486 13.4555 41.6518 13.0513C41.167 12.647 40.5689 12.3036 39.8575 12.0211C39.1582 11.7384 38.4587 11.4498 37.7592 11.1552C37.0597 10.8605 36.4612 10.4811 35.9637 10.0169C35.4782 9.55265 35.2318 9.01453 35.2246 8.40257ZM53.3637 17.7495L52.8237 17.7537L52.7495 11.4541L46.2697 11.5039L46.3439 17.8034L45.8039 17.8076L45.6554 5.20844L46.1954 5.20429L46.2633 10.9639L52.7431 10.9142L52.6752 5.15455L53.2152 5.15041L53.3637 17.7495Z"
                            fill="black" />
                        <path id="0P"
                            d="M64.2171 29.8221C63.6051 30.9861 62.6571 31.5681 61.3731 31.5681C60.0891 31.5681 59.1351 30.9861 58.5111 29.8221C57.8991 28.6581 57.5931 27.0801 57.5931 25.0881C57.5931 23.0961 57.8991 21.5181 58.5111 20.3541C59.1351 19.1901 60.0891 18.6081 61.3731 18.6081C62.6571 18.6081 63.6051 19.1961 64.2171 20.3721C64.8411 21.5361 65.1531 23.1081 65.1531 25.0881C65.1531 27.0681 64.8411 28.6461 64.2171 29.8221ZM63.7671 20.7861C63.2151 19.6941 62.4171 19.1481 61.3731 19.1481C60.3291 19.1481 59.5251 19.6881 58.9611 20.7681C58.4091 21.8481 58.1331 23.2881 58.1331 25.0881C58.1331 26.8881 58.4091 28.3281 58.9611 29.4081C59.5251 30.4881 60.3291 31.0281 61.3731 31.0281C62.4171 31.0281 63.2151 30.4881 63.7671 29.4081C64.3311 28.3161 64.6131 26.8761 64.6131 25.0881C64.6131 23.3001 64.3311 21.8661 63.7671 20.7861ZM72.7204 25.3401L72.4504 24.8721L73.4584 24.2961C74.2864 23.8401 74.7004 23.1141 74.7004 22.1181C74.7004 20.2581 73.2844 19.3281 70.4524 19.3281H68.7964V31.3881H68.2564V18.7881H70.4524C72.0364 18.7881 73.2304 19.0821 74.0344 19.6701C74.8384 20.2461 75.2404 21.0621 75.2404 22.1181C75.2404 23.3181 74.7364 24.2001 73.7284 24.7641L72.7204 25.3401Z"
                            fill="black" />
                        <path id="vectdoor"
                            d="M26.2249 53.8544V60.0883C26.2249 60.6405 25.7772 61.0883 25.2249 61.0883H22.5534H19.882C19.3297 61.0883 18.882 60.6405 18.882 60.0883V53.8544V47.6206C18.882 47.0683 19.3297 46.6206 19.882 46.6206H22.5534H25.2249C25.7772 46.6206 26.2249 47.0683 26.2249 47.6206V53.8544Z"
                            fill="black" />
                        <rect id="Rectangle 24" x="5.3506" y="39.7667" width="1.57138" height="21.0632" fill="black" />
                        <rect id="Rectangle 25" x="39.3445" y="39.7667" width="1.57138" height="21.0632" fill="black" />
                        <path id="Rectangle 26"
                            d="M25.6265 1.73585C25.6265 1.41271 25.8885 1.15076 26.2116 1.15076H70.0286C70.3518 1.15076 70.6137 1.41271 70.6137 1.73585V1.73585C70.6137 2.05898 70.3518 2.32093 70.0286 2.32093H26.2116C25.8885 2.32093 25.6265 2.05898 25.6265 1.73585V1.73585Z"
                            fill="black" />
                        <rect id="Rectangle 29" width="1.53742" height="41.3518" rx="0.768708"
                            transform="matrix(0.960289 -0.279008 0.423715 0.905796 69.0022 1.42896)" fill="black" />
                        <rect id="Rectangle 23" x="42.7343" y="59.6597" width="40.5518" height="2.34035" rx="1.17018"
                            fill="black" />
                        <path id="Rectangle 30"
                            d="M0 60.7599C0 60.075 0.555205 59.5198 1.24008 59.5198H40.8964C40.9044 59.5198 40.9109 59.5263 40.9109 59.5343V59.5343V60.7599V61.9838V61.9838C40.9109 61.9927 40.9035 61.9999 40.8945 61.9999C25.3469 61.9999 16.446 61.9999 1.24275 61.9999C0.557873 61.9999 0 61.4447 0 60.7599V60.7599Z"
                            fill="black" />
                    </g>
                    <path id="vectorT"
                        d="M67.6802 39.6763L55.364 39.4101L55.3522 39.412C55.3491 39.4124 55.3462 39.4128 55.3435 39.4131C55.3396 39.4136 55.3361 39.414 55.3333 39.4143C55.3239 39.4153 55.3158 39.4159 55.3104 39.4163L55.295 39.4172C55.2863 39.4176 55.2776 39.4179 55.2697 39.4181C55.2538 39.4186 55.2354 39.4189 55.2158 39.4191L55.1487 39.4195C55.0994 39.4197 55.0402 39.4196 54.9751 39.4193C54.8447 39.4188 54.6881 39.4174 54.5341 39.4157C54.3801 39.4139 54.2278 39.4117 54.1061 39.4093C54.0454 39.4081 53.9914 39.4069 53.9483 39.4057C53.9267 39.4051 53.9071 39.4044 53.8901 39.4037L53.8654 39.4026C53.8578 39.4022 53.8489 39.4017 53.8399 39.401L53.8229 39.3996L53.8109 39.3982C53.8086 39.398 53.806 39.3976 53.8031 39.3973C53.8002 39.3969 53.797 39.3964 53.7936 39.3959C53.7871 39.3949 53.7769 39.3932 53.7645 39.3906C53.759 39.3894 53.7469 39.3865 53.7402 39.3848C53.7318 39.3825 53.7127 39.3767 53.7019 39.3731C53.6962 39.371 53.6876 39.3675 53.678 39.3635C52.4985 39.3144 51.7022 39.2331 51.1768 39.1075C50.8514 39.0296 50.567 38.9212 50.3599 38.7429C50.1213 38.5374 50.0278 38.2776 50.0278 38.0169C50.0278 37.7885 50.1505 37.6259 50.2616 37.532C50.3653 37.4444 50.4866 37.3899 50.5897 37.353C50.7998 37.2778 51.0835 37.2246 51.4219 37.1824C52.109 37.0968 53.1555 37.0416 54.6141 37.005C57.5364 36.9317 62.1902 36.9317 69.1128 36.9317H69.1247C76.0555 36.9317 80.6333 36.9526 83.4789 37.0358C84.8985 37.0773 85.9038 37.1347 86.5593 37.2153C86.8823 37.2551 87.15 37.3038 87.3475 37.3703C87.4436 37.4026 87.5589 37.4507 87.6592 37.5289C87.7632 37.61 87.9047 37.7696 87.9047 38.0114C87.9047 38.2457 87.7686 38.4003 87.6903 38.4717C87.6051 38.5494 87.5055 38.6059 87.4184 38.6478C87.2405 38.7334 87.0049 38.8092 86.7354 38.8783C86.1892 39.0182 85.4093 39.1535 84.4418 39.2722C82.5019 39.5101 79.7566 39.687 76.5064 39.687H70.2657V49.7085C70.2657 51.4832 70.2734 52.977 70.2798 54.2325C70.2911 56.454 70.2986 57.9298 70.2534 58.8964C70.219 59.6332 70.153 60.1744 69.9797 60.5329C69.8823 60.7344 69.7396 60.9046 69.5336 61.0125C69.3391 61.1145 69.1375 61.1343 68.973 61.1343C68.8199 61.1343 68.6281 61.109 68.4435 60.9919C68.2589 60.8748 68.1389 60.7026 68.057 60.5168C67.9056 60.173 67.8295 59.6493 67.7803 58.9061C67.6802 57.392 67.6802 54.6497 67.6802 49.7548V49.7085V39.6763Z"
                        fill="white" stroke="black" />
                    <path id="vectorA"
                        d="M5.34985 39.1413L4.90051 39.3606L4.81277 39.1808L4.87326 38.9902C4.89666 38.9164 4.9856 38.7093 5.10468 38.4369C5.23237 38.1447 5.4139 37.735 5.64314 37.2214C6.10177 36.194 6.75288 34.7476 7.54964 32.9879C9.14324 29.4682 11.3203 24.6929 13.7072 19.5044C16.0946 14.3147 18.2989 9.6304 19.9266 6.26302C20.7401 4.57993 21.4111 3.22289 21.8894 2.29545C22.1279 1.83298 22.3218 1.47101 22.4629 1.22731C22.532 1.10808 22.596 1.00392 22.6506 0.928131C22.6743 0.895264 22.7153 0.840546 22.7681 0.792587C22.7895 0.773205 22.8537 0.716118 22.9521 0.680984C23.0063 0.66164 23.0938 0.64069 23.2002 0.656651C23.3004 0.671692 23.3902 0.715641 23.4612 0.778545C23.5032 0.815445 23.5305 0.850971 23.5393 0.862518C23.5556 0.883675 23.5696 0.904411 23.5804 0.921085C23.6023 0.954868 23.6254 0.994183 23.6482 1.03477C23.6947 1.11714 23.7535 1.22861 23.823 1.36431C23.9625 1.63699 24.1538 2.02557 24.3903 2.51512C24.8637 3.49513 25.5236 4.89116 26.3237 6.59923C27.924 10.0159 30.088 14.688 32.4482 19.7929L32.4491 19.7948C37.1191 30.0091 41.0499 38.6004 41.205 38.9265L41.205 38.9265L41.2075 38.9319C41.2635 39.0531 41.2948 39.2224 41.2261 39.4015C41.1634 39.5647 41.045 39.6626 40.9596 39.7169C40.7994 39.8187 40.5878 39.872 40.3852 39.909C39.9532 39.9879 39.2531 40.0415 38.2085 40.0802C36.1059 40.1581 32.4896 40.1787 26.5396 40.1787H26.4931C19.4796 40.1787 15.8522 40.1787 13.9828 40.0746C13.5122 40.0484 13.1411 40.015 12.8496 39.9714C12.5636 39.9285 12.3242 39.8717 12.1338 39.7848C11.9307 39.6922 11.7564 39.5525 11.6552 39.3395C11.565 39.1498 11.5634 38.9582 11.5634 38.852C11.5634 38.7481 11.5659 38.567 11.6478 38.3854C11.74 38.1812 11.8999 38.0401 12.0929 37.9439C12.2723 37.8545 12.4948 37.7962 12.7545 37.7523C13.0193 37.7075 13.3539 37.6728 13.7746 37.6452C15.4478 37.5353 18.6828 37.5253 24.9137 37.5253C28.4518 37.5253 31.66 37.4943 33.9818 37.4376C35.1438 37.4092 36.0787 37.3745 36.7206 37.3344C36.8603 37.3257 36.9842 37.3168 37.0923 37.3079C36.9915 37.0611 36.8543 36.7369 36.6844 36.3435C36.2909 35.432 35.7274 34.1614 35.0492 32.6517C33.6929 29.633 31.8809 25.6651 30.0587 21.7158C28.2365 17.7665 26.4048 13.8374 25.0094 10.8964C24.3115 9.42546 23.7237 8.20378 23.3011 7.35081C23.1971 7.14098 23.1036 6.95444 23.0213 6.79263C22.9389 6.95173 22.8453 7.1353 22.741 7.3424C22.3105 8.19702 21.7057 9.43623 20.972 10.9696C19.505 14.0355 17.5264 18.2695 15.4033 22.9379L15.4022 22.9402C12.1255 30.047 10.1274 34.2952 8.84919 36.7668C8.21209 37.9988 7.74205 38.8129 7.37268 39.3234C7.18851 39.5779 7.01293 39.7803 6.83645 39.9228C6.65796 40.0669 6.4418 40.1787 6.18905 40.1787C5.73126 40.1787 5.40291 39.9621 5.20391 39.7679C5.10461 39.671 5.03212 39.5751 4.98388 39.5027C4.9595 39.4662 4.94057 39.4345 4.92687 39.4103C4.92001 39.3981 4.9144 39.3877 4.91002 39.3794L4.90437 39.3684L4.90221 39.3641L4.90131 39.3623L4.90089 39.3614L4.9007 39.361C4.9006 39.3608 4.90051 39.3606 5.34985 39.1413ZM23.4693 1.50298C23.4695 1.50268 23.4689 1.50339 23.4674 1.50533C23.4685 1.50402 23.4692 1.5032 23.4693 1.50298ZM37.2748 37.7892C37.2749 37.7893 37.2743 37.7865 37.2725 37.7802C37.2738 37.7859 37.2747 37.789 37.2748 37.7892Z"
                        fill="white" stroke="black" />
                </a>
            </svg>